<svg xmlns="http://www.w3.org/2000/svg" xmlns:xlink="http://www.w3.org/1999/xlink" width="292" height="159" viewBox="0 0 292 159">
  <defs>
    <clipPath id="clip-path">
      <rect id="Retângulo_70" data-name="Retângulo 70" width="292" height="159" transform="translate(5 106)" fill="#fff"/>
    </clipPath>
    <filter id="Interseção_2" x="-8.146" y="-6" width="119.225" height="176.892" filterUnits="userSpaceOnUse">
      <feOffset dy="3" input="SourceAlpha"/>
      <feGaussianBlur stdDeviation="3" result="blur"/>
      <feFlood/>
      <feComposite operator="in" in2="blur"/>
      <feComposite in="SourceGraphic"/>
    </filter>
    <linearGradient id="linear-gradient" x1="1.242" y1="0.5" x2="0.198" y2="0.5" gradientUnits="objectBoundingBox">
      <stop offset="0" stop-color="#d3344e"/>
      <stop offset="1" stop-color="#6a1a27" stop-opacity="0"/>
    </linearGradient>
  </defs>
  <g id="Grupo_de_máscara_1" data-name="Grupo de máscara 1" transform="translate(-5 -106)" clip-path="url(#clip-path)">
    <g id="Grupo_38" data-name="Grupo 38" transform="translate(4.737 106)">
      <path id="Caminho_80" data-name="Caminho 80" d="M7.025,0H285.393c3.88,0,7.025,3.416,7.025,7.63V151.656c0,4.214-3.145,7.63-7.025,7.63H7.025c-3.88,0-7.025-3.416-7.025-7.63V7.63C0,3.416,3.145,0,7.025,0Z" transform="translate(0 0)" fill="#0b3b4e"/>
      <g transform="matrix(1, 0, 0, 1, 0.26, 0)" filter="url(#Interseção_2)">
        <path id="Interseção_2-2" data-name="Interseção 2" d="M6.611,158.892C2.96,158.892,0,155.484,0,151.28V7.612C0,3.408,2.96,0,6.611,0H71.255c18.424,19.827,29.971,48.292,29.971,79.922,0,31.126-11.185,59.19-29.1,78.97Z" transform="translate(0.85 0)" opacity="0.13"/>
      </g>
      <rect id="Retângulo_56" data-name="Retângulo 56" width="195" height="51" transform="translate(97.263 49)" fill="url(#linear-gradient)"/>
      <text id="Tutorial_de_como_configurar_o_token" data-name="Tutorial de como
configurar o token" transform="translate(278.263 70)" fill="#fff" font-size="19" font-family="ErasITC-Medium, Eras ITC" font-weight="500"><tspan x="-142.296" y="0">Tutorial de como</tspan><tspan x="-156.286" y="20">configurar o token</tspan></text>
      <text id="Clique_aqui_para_assistir" data-name="Clique aqui para assistir" transform="translate(277.263 111)" fill="#fff" font-size="12" font-family="Corbel" opacity="0.67"><tspan x="-115.787" y="0">Clique aqui para assistir</tspan></text>
      <ellipse id="Elipse_22" data-name="Elipse 22" cx="32.5" cy="33" rx="32.5" ry="33" transform="translate(15.263 46)" fill="#ff002a" opacity="0.46"/>
      <path id="Polígono_2" data-name="Polígono 2" d="M13.8,2.742a2,2,0,0,1,3.4,0l11.907,19.2A2,2,0,0,1,27.407,25H3.593a2,2,0,0,1-1.7-3.054Z" transform="translate(65.263 63) rotate(90)" fill="#fff"/>
    </g>
  </g>
</svg>
