<svg xmlns="http://www.w3.org/2000/svg" xmlns:xlink="http://www.w3.org/1999/xlink" width="360" height="186" viewBox="0 0 360 186">
  <defs>
    <clipPath id="clip-path">
      <rect id="Retângulo_70" data-name="Retângulo 70" width="360" height="186" transform="translate(0 106)" fill="#fff"/>
    </clipPath>
    <filter id="Interseção_2" x="-9" y="-6" width="136.495" height="204" filterUnits="userSpaceOnUse">
      <feOffset dy="3" input="SourceAlpha"/>
      <feGaussianBlur stdDeviation="3" result="blur"/>
      <feFlood/>
      <feComposite operator="in" in2="blur"/>
      <feComposite in="SourceGraphic"/>
    </filter>
    <linearGradient id="linear-gradient" x1="1.242" y1="0.5" x2="0.198" y2="0.5" gradientUnits="objectBoundingBox">
      <stop offset="0" stop-color="#d3344e"/>
      <stop offset="1" stop-color="#6a1a27" stop-opacity="0"/>
    </linearGradient>
  </defs>
  <g id="Grupo_de_máscara_1" data-name="Grupo de máscara 1" transform="translate(0 -106)" clip-path="url(#clip-path)">
    <g id="Grupo_38" data-name="Grupo 38">
      <path id="Caminho_80" data-name="Caminho 80" d="M8.649,0h342.7A8.794,8.794,0,0,1,360,8.932v168.6a8.794,8.794,0,0,1-8.649,8.932H8.649A8.794,8.794,0,0,1,0,177.53V8.932A8.794,8.794,0,0,1,8.649,0Z" transform="translate(0 106)" fill="#0b3b4e"/>
      <g transform="matrix(1, 0, 0, 1, 0, 106)" filter="url(#Interseção_2)">
        <path id="Interseção_2-2" data-name="Interseção 2" d="M42.328,186c-4.274,0-7.739-3.99-7.739-8.91V8.91C34.589,3.99,38.054,0,42.328,0H118c21.567,23.209,35.084,56.531,35.084,93.558,0,36.436-13.093,69.289-34.062,92.443Z" transform="translate(-34.59 0)" opacity="0.13"/>
      </g>
      <rect id="Retângulo_56" data-name="Retângulo 56" width="228" height="60" transform="translate(119 163)" fill="url(#linear-gradient)"/>
      <text id="Tutorial_de_como_configurar_o_token" data-name="Tutorial de como
configurar o token" transform="translate(337 188)" fill="#fff" font-size="23" font-family="ErasITC-Medium, Eras ITC" font-weight="500"><tspan x="-172.253" y="0">Tutorial de como</tspan><tspan x="-189.188" y="24">configurar o token</tspan></text>
      <text id="Clique_aqui_para_assistir" data-name="Clique aqui para assistir" transform="translate(339 237)" fill="#fff" font-size="15" font-family="Corbel" opacity="0.67"><tspan x="-144.734" y="0">Clique aqui para assistir</tspan></text>
      <circle id="Elipse_22" data-name="Elipse 22" cx="38.5" cy="38.5" r="38.5" transform="translate(21 160)" fill="#ff002a" opacity="0.46"/>
      <path id="Polígono_2" data-name="Polígono 2" d="M16.3,2.738a2,2,0,0,1,3.4,0L34.1,25.945A2,2,0,0,1,32.4,29H3.6a2,2,0,0,1-1.7-3.055Z" transform="translate(79 181) rotate(90)" fill="#fff"/>
    </g>
  </g>
</svg>
