<svg id="Grupo_38" data-name="Grupo 38" xmlns="http://www.w3.org/2000/svg" xmlns:xlink="http://www.w3.org/1999/xlink" width="320.288" height="174.436" viewBox="0 0 320.288 174.436">
  <defs>
    <linearGradient id="linear-gradient" x1="1.242" y1="0.5" x2="0.198" y2="0.5" gradientUnits="objectBoundingBox">
      <stop offset="0" stop-color="#d3344e"/>
      <stop offset="1" stop-color="#6a1a27" stop-opacity="0"/>
    </linearGradient>
  </defs>
  <path id="Caminho_80" data-name="Caminho 80" d="M7.693,0H312.535c4.249,0,7.693,3.741,7.693,8.356V166.079c0,4.615-3.444,8.356-7.693,8.356H7.693c-4.249,0-7.693-3.741-7.693-8.356V8.356C0,3.741,3.444,0,7.693,0Z" transform="translate(0 0)" fill="#0b3b4e"/>
  <path id="Interseção_2" data-name="Interseção 2" d="M7.24,174c-4,0-7.24-3.732-7.24-8.336V8.336C0,3.732,3.242,0,7.24,0H78.031c20.176,21.712,32.821,52.885,32.821,87.523,0,34.086-12.249,64.819-31.865,86.48Z" transform="translate(1.223 0)" opacity="0.13"/>
  <rect id="Retângulo_56" data-name="Retângulo 56" width="214" height="56" transform="translate(106.288 54)" fill="url(#linear-gradient)"/>
  <text id="Tutorial_de_como_configurar_o_token" data-name="Tutorial de como
configurar o token" transform="translate(299.288 76)" fill="#fff" font-size="20" font-family="ErasITC-Medium, Eras ITC" font-weight="500"><tspan x="-149.785" y="0">Tutorial de como</tspan><tspan x="-164.512" y="21">configurar o token</tspan></text>
  <text id="Clique_aqui_para_assistir" data-name="Clique aqui para assistir" transform="translate(301.288 122)" fill="#fff" font-size="13" font-family="Corbel" opacity="0.67"><tspan x="-125.436" y="0">Clique aqui para assistir</tspan></text>
  <ellipse id="Elipse_22" data-name="Elipse 22" cx="36" cy="36.5" rx="36" ry="36.5" transform="translate(16.288 50)" fill="#ff002a" opacity="0.46"/>
  <path id="Polígono_2" data-name="Polígono 2" d="M15.308,2.688a2,2,0,0,1,3.385,0L32.07,23.934A2,2,0,0,1,30.377,27H3.623A2,2,0,0,1,1.93,23.934Z" transform="translate(71.288 69) rotate(90)" fill="#fff"/>
</svg>
